<svg preserveAspectRatio="none" width="100%" height="100%" overflow="visible" style="display: block;" viewBox="0 0 495.333 743" fill="none" xmlns="http://www.w3.org/2000/svg">
<g id="img_site-parking_01.3 1 [Vectorized]" clip-path="url(#clip0_0_4)">
<rect width="495.333" height="743" fill="#212121"/>
<path id="Vector" d="M0 0H495.333V743H0V0Z" fill="var(--fill-0, #121100)"/>
<path id="Vector_2" d="M154.523 470.942C153.847 469.095 153.129 467.252 152.963 465.278C152.453 459.231 153.471 427.214 155.261 423.387C156.778 420.143 160.425 418.58 161.895 415.525C163.845 411.476 165.376 407.13 167.037 402.951L175.21 382.514C178.986 373.114 180.894 363.141 192.645 363.199C199.563 363.236 206.599 363.141 213.521 363.141L249.816 363.17L271.742 363.141C292.32 363.123 291.682 362.57 299.47 382.177L307.829 403.132C309.404 407.057 311.267 412.097 313.174 415.775C316.694 417.854 320.886 420.524 321.64 424.932C323.521 435.918 322.83 447.534 323.588 458.668C323.895 463.171 323.753 466.719 321.982 470.931C321.887 477.174 322.99 482.119 319.802 487.253C328.702 487.365 337.604 487.38 346.504 487.296L354.261 487.3L384.785 487.307L392.877 487.285C396.085 487.293 408.801 487.129 411.319 487.518C413.464 487.652 415.71 490.144 414.785 492.346C413.845 494.585 410.738 495.492 408.518 495.441C399.38 495.227 390.243 495.303 381.105 495.303L314.198 495.296H138.053C130.674 495.299 85.5573 495.894 83.4083 495.038C82.1571 494.538 81.1069 493.66 80.6519 492.361C80.3496 491.497 80.3953 490.576 80.8043 489.756C81.4034 488.552 82.5218 487.906 83.7534 487.518C85.9659 487.093 101.375 487.351 104.604 487.351L156.8 487.318C153.48 482.507 154.561 477.109 154.523 470.942Z" fill="var(--fill-0, #3F3E3E)"/>
<path id="Vector_3" d="M154.523 470.942C162.246 479.239 168.586 477.131 179.277 476.924L297.208 476.997C307.319 477.113 314.752 479.108 321.982 470.931C321.887 477.174 322.99 482.119 319.802 487.253C328.702 487.365 337.604 487.38 346.504 487.296L354.261 487.3L384.785 487.307L392.877 487.285C396.085 487.293 408.801 487.129 411.319 487.518C413.464 487.652 415.71 490.144 414.785 492.346C413.845 494.585 410.738 495.492 408.518 495.441C399.38 495.227 390.243 495.303 381.105 495.303L314.198 495.296H138.053C130.674 495.3 85.5573 495.895 83.4083 495.038C82.1571 494.538 81.1069 493.66 80.6519 492.361C80.3496 491.497 80.3953 490.576 80.8043 489.756C81.4034 488.552 82.5218 487.906 83.7534 487.518C85.9659 487.093 101.375 487.351 104.604 487.351L156.8 487.318C153.48 482.507 154.561 477.109 154.523 470.942Z" fill="var(--fill-0, #B3B2B1)"/>
<path id="Vector_4" d="M179.277 476.924L297.208 476.997C297.092 481.757 296.847 483.335 299.401 487.26C285.505 487.576 270.8 487.34 256.857 487.34L177.207 487.325C179.621 483.052 179.34 481.811 179.277 476.924Z" fill="var(--fill-0, #1B1B1C)"/>
<path id="Vector_5" d="M154.523 470.942C162.246 479.239 168.586 477.131 179.277 476.924C179.34 481.811 179.621 483.052 177.207 487.325L256.857 487.34C270.8 487.34 285.505 487.576 299.401 487.26C296.847 483.335 297.092 481.757 297.208 476.997C307.319 477.113 314.752 479.108 321.982 470.931C321.887 477.174 322.99 482.119 319.802 487.253C328.702 487.365 337.604 487.38 346.504 487.296L354.261 487.3L384.785 487.307L392.877 487.285C396.085 487.293 408.801 487.129 411.319 487.518C404.58 487.812 397.145 487.648 390.33 487.645H355.418H246.903L140.571 487.637L104.772 487.648C98.031 487.648 90.4446 487.815 83.7534 487.518C85.9659 487.093 101.375 487.351 104.604 487.351L156.8 487.318C153.48 482.507 154.561 477.109 154.523 470.942Z" fill="var(--fill-0, #676666)"/>
<path id="Vector_6" d="M171.398 410.449C173.472 405.298 186.184 371.482 188.769 370.354C190.438 369.624 192.74 369.508 194.546 369.432C208.797 368.808 223.329 369.367 237.606 369.367C252.182 369.363 267.007 368.804 281.558 369.425C283.574 369.512 285.816 369.686 287.715 370.408C288.675 370.774 289.155 371.674 289.635 372.545C291.748 376.383 293.181 380.798 294.814 384.872C298.225 393.38 301.497 401.978 305.167 410.377C300.961 410.478 296.632 410.409 292.417 410.391C290.323 410.522 285.043 410.529 283.062 410.279C277.655 410.649 260.481 410.696 255.06 410.235C253.001 410.642 248.149 410.468 245.823 410.449H171.398Z" fill="var(--fill-0, #B3B2B1)"/>
<path id="Vector_7" d="M245.823 410.449C247.938 404.71 252.545 399.82 257.996 397.099C263.947 394.164 270.818 393.707 277.105 395.822C284.942 398.506 288.912 403.342 292.416 410.391C290.323 410.522 285.043 410.529 283.062 410.279C277.655 410.649 260.481 410.696 255.06 410.235C253.001 410.642 248.149 410.468 245.823 410.449Z" fill="var(--fill-0, #1B1B1C)"/>
<path id="Vector_8" d="M255.06 410.235C258.701 406.045 262.037 403.23 267.919 402.827C272.328 402.533 276.673 404.01 279.994 406.923C281.129 407.935 282.157 409.06 283.062 410.279C277.655 410.649 260.481 410.696 255.06 410.235Z" fill="var(--fill-0, #B3B2B1)"/>
<path id="Vector_9" d="M213.447 431.531C220.463 431.524 262.387 430.635 265.585 432.108C266.256 432.417 267.127 433.222 267.325 433.94C267.989 436.349 261.811 445.738 260.403 448.166C259.501 449.094 258.408 449.882 257.133 450.194C253.503 451.086 220.072 451.119 217.986 449.631C215.09 447.567 209.834 438.74 209.394 435.199C209.275 434.238 209.322 433.385 209.998 432.631C210.903 431.626 212.195 431.633 213.447 431.531Z" fill="var(--fill-0, #B3B2B1)"/>
<path id="Vector_10" d="M173.196 431.078C183.142 430.203 196.314 433.643 202.068 442.898C204.188 446.308 199.94 448.913 197.135 449.972C187.702 451.634 173.333 446.74 168.23 438.261C166.059 434.655 170.463 432.134 173.196 431.078Z" fill="var(--fill-0, #B3B2B1)"/>
<path id="Vector_11" d="M295.445 431.11C300.841 430.45 312.939 430.94 306.99 439.825C302.938 445.88 294.261 448.764 287.33 450.106C262.589 452.269 276.441 434.085 295.445 431.11Z" fill="var(--fill-0, #B3B2B1)"/>
<path id="Vector_12" d="M199.197 459.833C207.569 459.517 217.478 459.782 225.999 459.782L277.825 459.804C276.702 461.672 276.424 462.104 274.918 463.657C273.563 464.459 272.231 465.148 270.609 465.191C249.381 465.746 228.024 465.453 206.782 465.311C203.892 465.293 198.916 462.895 199.197 459.833Z" fill="var(--fill-0, #B3B2B1)"/>
<path id="Vector_13" d="M141.019 301.987C159.35 300.561 175.336 314.332 176.636 332.668C177.936 351.005 164.053 366.892 145.703 368.064C127.531 369.229 111.827 355.511 110.54 337.352C109.252 319.193 122.864 303.399 141.019 301.987Z" fill="var(--fill-0, #DACF00)"/>
<path id="Vector_14" d="M156.364 323.891C158.483 323.919 161.185 325.826 159.934 327.195C154.888 332.72 144.954 344.41 138.908 348.139C136.146 346.194 133.315 343.142 130.885 340.696C130.11 339.928 127.235 337.342 127.268 336.492C127.624 327.453 137.534 339.447 138.979 340.936C144.323 335.536 150.78 328.962 156.364 323.891Z" fill="var(--fill-0, #FEFEFE)"/>
<path id="Vector_15" d="M385.043 397.552C388.472 398.539 389.651 398.924 392.529 400.973C392.961 405.222 392.674 410.174 392.718 414.502C392.808 424.08 392.362 434.136 392.852 443.663L392.928 445.793L392.645 474.918C392.645 477.631 392.504 484.862 392.877 487.285L384.785 487.307L354.261 487.3L346.504 487.296C346.839 475.008 346.687 457.917 346.271 445.807L346.321 443.373C349.002 442.952 356.323 443.173 359.452 443.184L385.039 443.224L385.043 397.552Z" fill="var(--fill-0, #1B1B1C)"/>
<path id="Vector_16" d="M385.043 397.552C388.472 398.539 389.651 398.924 392.529 400.973C392.961 405.222 392.674 410.174 392.718 414.502C392.808 424.08 392.362 434.136 392.852 443.663L392.928 445.793C390.257 445.847 387.583 445.865 384.912 445.851H354.289C351.616 445.865 348.943 445.851 346.271 445.807L346.321 443.373C349.002 442.952 356.323 443.173 359.452 443.184L385.039 443.224L385.043 397.552Z" fill="var(--fill-0, #242424)"/>
<path id="Vector_17" d="M346.321 443.373C349.129 443.732 351.994 443.62 354.822 443.659C367.45 443.848 380.238 443.318 392.852 443.663L392.928 445.793C390.257 445.847 387.583 445.865 384.912 445.851H354.289C351.616 445.865 348.943 445.851 346.271 445.807L346.321 443.373Z" fill="var(--fill-0, #676666)"/>
<path id="Vector_18" d="M384.912 445.851C387.583 445.865 390.257 445.847 392.928 445.793L392.645 474.918C392.645 477.631 392.504 484.862 392.877 487.285L384.785 487.307C385.13 483.654 384.956 476.246 384.959 472.349C384.996 463.519 384.977 454.685 384.912 445.851Z" fill="var(--fill-0, #242424)"/>
<path id="Vector_19" d="M346.271 445.807C348.943 445.851 351.616 445.865 354.289 445.851C354.179 454.25 354.151 462.652 354.203 471.05C354.206 476.046 354.032 482.388 354.261 487.3L346.504 487.296C346.839 475.009 346.687 457.917 346.271 445.807Z" fill="var(--fill-0, #242424)"/>
<path id="Vector_20" d="M358.878 469.131C364.547 469.128 374.439 468.75 379.669 469.222C380.449 469.89 380.202 469.868 380.383 471.239C377.397 471.199 360.476 471.707 359.107 470.775L358.878 469.131Z" fill="var(--fill-0, #676666)"/>
<path id="Vector_21" d="M358.86 478.999C364.903 479.021 373.873 478.6 379.658 479.064C380.449 479.681 380.198 479.685 380.394 481.063C377.39 481.045 360.491 481.535 359.087 480.614L358.86 478.999Z" fill="var(--fill-0, #676666)"/>
<path id="Vector_22" d="M358.715 474.087C361.723 474.087 378.522 473.615 380.104 474.403L380.521 476.068C377.346 476.05 360.66 476.605 359.052 475.614L358.715 474.087Z" fill="var(--fill-0, #676666)"/>
<path id="Vector_23" d="M273.138 317.034C274.924 318.794 277.97 321.623 279.544 323.411C284.299 328.203 289.099 332.949 293.942 337.651L300.48 344.135C298.759 344.63 292.172 346.386 290.912 346.972C288.741 344.781 286.545 342.615 284.324 340.474L269.958 326.272L263.521 319.781C266.344 319.02 270.504 318.033 273.138 317.034Z" fill="var(--fill-0, #B3B2B1)"/>
<path id="Vector_24" d="M273.138 317.034C274.924 318.794 277.97 321.623 279.544 323.411C277.605 323.96 271.476 325.575 269.958 326.272L263.521 319.781C266.344 319.02 270.504 318.033 273.138 317.034Z" fill="var(--fill-0, #3F3E3E)"/>
<path id="Vector_25" d="M293.942 337.651L300.48 344.135C298.759 344.63 292.172 346.386 290.912 346.972C288.741 344.781 286.545 342.615 284.324 340.474C286.663 340.082 291.796 338.614 293.942 337.651Z" fill="var(--fill-0, #3F3E3E)"/>
<path id="Vector_26" d="M231.36 275.618C233.556 277.733 235.736 279.866 237.898 282.017L252.186 296.282C249.047 297.524 245.581 297.988 242.681 299.15C237.94 294.337 233.136 289.589 228.269 284.903C226.132 282.713 223.966 280.552 221.77 278.42C224.135 277.539 228.778 276.361 231.36 275.618Z" fill="var(--fill-0, #B3B2B1)"/>
<path id="Vector_27" d="M231.36 275.618C233.556 277.733 235.736 279.866 237.898 282.017C235.931 282.505 229.727 283.912 228.269 284.903C226.132 282.713 223.966 280.552 221.77 278.42C224.135 277.539 228.778 276.361 231.36 275.618Z" fill="var(--fill-0, #3F3E3E)"/>
<path id="Vector_28" d="M252.186 296.282C254.365 298.395 256.52 300.531 258.65 302.693C263.396 307.413 268.303 312.44 273.138 317.034C270.504 318.033 266.344 319.02 263.521 319.781L249.042 305.483L242.681 299.15C245.581 297.988 249.047 297.524 252.186 296.282Z" fill="var(--fill-0, #B3B2B1)"/>
<path id="Vector_29" d="M252.186 296.282C254.365 298.395 256.52 300.531 258.65 302.693C256.587 303.269 250.751 304.758 249.042 305.483L242.681 299.15C245.581 297.988 249.047 297.524 252.186 296.282Z" fill="var(--fill-0, #3F3E3E)"/>
<path id="Vector_30" d="M321.349 364.886L336.003 379.336L342.373 385.685C340.553 386.153 333.884 387.677 332.828 388.606C330.597 386.389 328.382 384.158 326.181 381.912C321.405 377.112 316.583 372.356 311.715 367.647C313.666 366.885 319.092 365.521 321.349 364.886Z" fill="var(--fill-0, #B3B2B1)"/>
<path id="Vector_31" d="M336.003 379.336L342.373 385.685C340.553 386.153 333.884 387.677 332.828 388.606C330.597 386.389 328.382 384.158 326.181 381.912C329.158 381.317 333.004 380.156 336.003 379.336Z" fill="var(--fill-0, #3F3E3E)"/>
<path id="Vector_32" d="M300.48 344.135L314.929 358.537C316.628 360.201 319.893 363.21 321.349 364.886C319.092 365.521 313.667 366.885 311.715 367.647L305.275 361.243C300.533 356.44 295.745 351.683 290.912 346.972C292.172 346.386 298.759 344.63 300.48 344.135Z" fill="var(--fill-0, #B3B2B1)"/>
<path id="Vector_33" d="M314.929 358.537C316.628 360.201 319.893 363.21 321.349 364.886C319.092 365.521 313.667 366.885 311.715 367.647L305.275 361.243C308.516 360.427 311.735 359.524 314.929 358.537Z" fill="var(--fill-0, #3F3E3E)"/>
<path id="Vector_34" d="M211.01 255.453C212.957 257.321 214.918 259.312 216.841 261.217C221.626 266.072 226.466 270.872 231.36 275.618C228.778 276.361 224.135 277.539 221.77 278.42L207.221 263.994L204.921 261.694C206.416 259.911 209.281 257.185 211.01 255.453Z" fill="var(--fill-0, #B3B2B1)"/>
<path id="Vector_35" d="M211.01 255.453C212.957 257.321 214.918 259.312 216.841 261.217C214.211 261.962 209.649 263.1 207.221 263.994L204.921 261.694C206.416 259.911 209.281 257.185 211.01 255.453Z" fill="var(--fill-0, #3F3E3E)"/>
<path id="Vector_36" d="M368.503 411.4C373.688 412.369 375.031 412.72 377.284 417.644C377.161 420.713 377.146 422.708 374.65 424.979C373.115 426.358 371.094 427.065 369.036 426.946C367.058 426.859 365.2 425.973 363.887 424.49C362.208 422.596 361.644 419.933 361.879 417.459C363.731 413.715 364.623 412.971 368.503 411.4Z" fill="var(--fill-0, #3F3E3E)"/>
<path id="Vector_37" d="M342.373 385.685C347.163 390.496 351.98 395.285 356.824 400.041C353.729 401.042 350.279 401.884 347.109 402.718C342.377 397.988 337.617 393.282 332.828 388.606C333.884 387.677 340.553 386.153 342.373 385.685Z" fill="var(--fill-0, #B3B2B1)"/>
<path id="Vector_38" d="M356.824 400.041C358.98 402.163 361.122 404.3 363.252 406.448C364.754 407.885 366.953 410.13 368.503 411.4C364.623 412.971 363.731 413.715 361.879 417.459C359.437 414.709 356.178 411.665 353.529 409.1C351.824 407.616 348.822 404.424 347.109 402.718C350.279 401.884 353.729 401.042 356.824 400.041Z" fill="var(--fill-0, #3F3E3E)"/>
<path id="Vector_39" d="M363.252 406.448C364.754 407.884 366.953 410.13 368.503 411.4C364.623 412.971 363.731 413.715 361.879 417.459C359.437 414.709 356.178 411.665 353.529 409.1C356.739 408.109 359.982 407.224 363.252 406.448Z" fill="var(--fill-0, #B3B2B1)"/>
</g>
<defs>
<clipPath id="clip0_0_4">
<rect width="495.333" height="743" fill="white"/>
</clipPath>
</defs>
</svg>
