<svg preserveAspectRatio="none" width="100%" height="100%" overflow="visible" style="display: block;" viewBox="0 0 24 24.9961" fill="none" xmlns="http://www.w3.org/2000/svg">
<g id="SVG">
<path id="Vector" d="M20.0297 9.67504L12.5309 17.1738C12.4613 17.2436 12.3786 17.2989 12.2876 17.3366C12.1966 17.3744 12.099 17.3938 12.0004 17.3938C11.9019 17.3938 11.8043 17.3744 11.7132 17.3366C11.6223 17.2989 11.5395 17.2436 11.4699 17.1738L3.97104 9.67504C3.83033 9.53433 3.75129 9.34349 3.75129 9.14449C3.75129 8.9455 3.83033 8.75466 3.97104 8.61396C4.11175 8.47325 4.30259 8.3942 4.50159 8.3942C4.70058 8.3942 4.89142 8.47325 5.03213 8.61396L12.0004 15.5832L18.9687 8.61396C19.0384 8.54429 19.1211 8.48902 19.2121 8.45131C19.3032 8.41361 19.4007 8.3942 19.4992 8.3942C19.5978 8.3942 19.6953 8.41361 19.7864 8.45131C19.8774 8.48902 19.9602 8.54429 20.0297 8.61396C20.0994 8.68363 20.1547 8.76634 20.1924 8.85737C20.2301 8.9484 20.2495 9.04597 20.2495 9.14449C20.2495 9.24303 20.2301 9.34059 20.1924 9.43163C20.1547 9.52265 20.0994 9.60537 20.0297 9.67504Z" fill="var(--fill-0, #DACF00)"/>
</g>
</svg>
