<svg preserveAspectRatio="none" width="100%" height="100%" overflow="visible" style="display: block;" viewBox="0 0 19.2 19.2" fill="none" xmlns="http://www.w3.org/2000/svg">
<g id="SVG">
<path id="Vector" fill-rule="evenodd" clip-rule="evenodd" d="M9.17569 2.77534C9.41001 2.54103 9.78985 2.54103 10.0242 2.77534L16.8485 9.59961L10.0242 16.4238C9.78985 16.6582 9.41001 16.6582 9.17569 16.4238C8.94137 16.1895 8.94137 15.8097 9.17569 15.5754L15.1514 9.59961L9.17569 3.62387C8.94137 3.38956 8.94137 3.00966 9.17569 2.77534Z" fill="var(--fill-0, #DACF00)"/>
<path id="Vector_2" fill-rule="evenodd" clip-rule="evenodd" d="M2.60005 9.5998C2.60005 9.26844 2.86868 8.9998 3.20005 8.9998H16C16.3314 8.9998 16.6 9.26844 16.6 9.5998C16.6 9.93116 16.3314 10.1998 16 10.1998H3.20005C2.86868 10.1998 2.60005 9.93116 2.60005 9.5998Z" fill="var(--fill-0, #DACF00)"/>
</g>
</svg>
