<svg preserveAspectRatio="none" width="100%" height="100%" overflow="visible" style="display: block;" viewBox="0 0 115 157.676" fill="none" xmlns="http://www.w3.org/2000/svg">
<g id="Logo Creation Request Mar 15 2026 1 [Vectorized]">
<path id="Vector" d="M21.3991 104.88C20.7955 104.28 19.8624 103.131 19.2828 102.451C16.8995 99.6417 14.7019 96.68 12.704 93.5846C11.8183 92.1855 11.0628 90.6549 10.1514 89.2826C7.75254 85.6706 6.13812 81.5986 4.55814 77.5566C1.11436 68.4913 -0.115966 58.7349 0.969436 49.0984C1.31281 46.2668 2.1186 43.0502 2.58187 40.2001C2.88484 39.244 3.23587 38.2194 3.59159 37.2887C5.60106 32.0317 7.77893 27.1157 11.2117 22.6398C14.2206 18.7165 16.9495 15.4805 20.8411 12.3928C22.6206 10.9808 24.0129 9.77545 26.0696 8.72639C29.1615 6.82263 31.9136 5.16901 35.3842 3.95946C37.4554 3.2376 39.2138 2.81199 41.3413 2.29067C53.8066 -0.875693 66.9775 0.280614 78.7004 5.57054C80.3331 6.30312 82.221 7.43475 83.7689 8.34742C91.8564 13.0691 98.7203 19.6265 103.806 27.4902C105.424 30.0367 107.46 33.8718 108.53 36.6011C113.186 48.4715 113.872 61.5288 109.922 73.6997C109.164 76.038 108.712 78.4946 107.627 80.7319C105.027 86.6277 102.046 92.1598 98.4442 97.5035C96.6475 99.5879 95.0762 102.268 93.3036 104.303C91.8 106.03 89.9112 108.233 88.3586 109.902C84.0574 114.526 79.3756 119.186 74.5521 123.267C71.1394 126.154 67.3301 129.004 63.618 131.481C61.3465 132.962 58.8839 135.333 56.4168 136.256C54.497 135.332 51.5779 132.785 49.8408 131.413C48.79 130.583 47.6593 129.816 46.6173 128.993C44.1974 127.058 41.8054 125.087 39.4422 123.083C38.2514 122.093 37.2996 121.297 37.2348 119.707C37.1632 117.947 37.1997 116.178 37.2067 114.421L37.2005 105.626C37.2053 103.237 37.0312 82.4765 37.3812 82.0585C37.8085 82.034 42.1821 84.7849 43.0737 85.2046C47.3815 87.2321 51.5727 87.9368 56.308 88.0896C57.9195 88.1414 59.5209 88.0024 61.1194 87.8169C66.847 87.1521 71.0064 85.3137 75.7101 82.0595C76.8788 81.2509 78.1643 80.4366 79.1947 79.4575C80.3813 78.3301 82.7762 75.7821 83.73 74.4984C84.5694 73.369 85.2239 72.1357 85.9026 70.9073C88.2612 66.64 89.8524 62.4188 89.9749 57.4784C90.0412 54.8082 90.0697 52.0538 89.6942 49.4052C89.0224 44.6667 86.3385 38.6926 83.4254 34.916C82.5881 33.8303 81.5734 32.8419 80.6271 31.8483C74.8188 25.7485 66.4335 21.8892 57.9771 21.6878C51.2076 21.5266 45.918 22.6621 39.96 25.8893C37.2941 27.3333 35.2322 28.6967 33.0321 30.7979C29.7828 33.9009 28.1124 36.0616 25.9764 40.0388C21.6905 48.0191 21.7987 53.6641 21.7988 62.3875C21.7989 68.3815 21.9214 74.4007 21.7762 80.392C21.613 80.8698 21.6745 84.417 21.6656 85.1722L21.5434 101.007C21.5349 102.148 21.3639 103.928 21.3991 104.88Z" fill="var(--fill-0, #FEFEFE)"/>
<path id="Vector_2" d="M44.8887 66.1566C44.7843 66.1997 44.4736 66.191 44.3399 66.1935C43.9543 66.7931 44.3985 69.1029 43.9148 70.0943C43.7859 70.3585 43.4934 70.5161 43.2301 70.6203C41.7319 71.2138 36.7117 71.1417 35.2213 70.4767C34.8689 70.3195 34.7265 70.191 34.5976 69.8262C34.009 68.1618 34.0773 54.0723 34.5967 52.4854C35.0212 51.1883 36.5017 50.5461 37.0727 49.3511C36.405 48.5874 32.9025 48.965 32.0584 47.7841C31.6128 47.3697 31.5977 45.9819 31.6901 45.4624C32.015 43.6347 36.0866 44.0452 37.4022 44.2233C37.7455 44.2698 38.3722 44.9639 38.9518 45.0405C40.0413 44.5261 41.9418 37.9271 43.6241 36.8361C45.86 35.3861 48.1868 35.7017 50.7545 35.7122L57.8093 35.7444C59.6391 35.7565 61.469 35.7569 63.2989 35.7458C68.2923 35.7229 69.7185 35.3171 71.8354 40.2544C72.4314 41.6445 73.7211 44.1881 74.624 45.3494C74.907 45.116 75.3808 44.6105 75.8796 44.4572C78.7467 43.5722 82.8006 43.5678 81.3306 47.869C81.1021 48.5376 76.7197 48.9819 75.8821 49.1653C76.5973 50.0013 78.5586 51.8059 78.6416 52.8312C79.0513 57.9289 78.6319 63.1865 78.7086 68.3067C78.7507 71.1228 76.8751 70.8784 74.732 70.8912C72.8915 70.9022 70.9932 71.2755 69.3768 70.2087C69.0086 69.0706 69.0834 67.2419 68.9487 65.9353C68.709 65.8289 68.3443 65.7869 68.0952 65.7965C65.7127 65.8887 45.9587 65.3178 44.8887 66.1566ZM41.5537 47.3788C49.8854 47.5454 58.2191 47.5779 66.5518 47.4764C67.9358 47.4439 70.4155 47.461 71.7135 47.3088C70.5614 45.2191 69.5492 40.9588 67.9951 39.3985C67.7622 39.1647 67.4355 39.0406 67.1247 38.9501C65.4693 38.4676 49.2203 38.6381 46.816 38.7872C45.8218 39.014 45.2492 39.4425 44.7643 40.3629C43.6842 42.4129 42.3373 45.2426 41.5537 47.3788ZM74.7305 57.2874C74.9182 56.7349 75.1029 56.2287 75.2209 55.6545C74.4768 53.8583 73.9134 53.6191 71.9763 53.6217C70.642 53.6519 68.7511 53.6266 67.8998 54.7303C65.86 57.375 68.8209 58.0838 70.7301 58.1525C72.5412 58.1431 73.2148 58.2573 74.7305 57.2874ZM44.4084 57.9595C44.8336 57.737 45.2973 57.5149 45.6757 57.2245L45.9932 55.869C45.1725 53.3416 43.2147 53.5922 40.9872 53.6402C40.5898 53.6487 40.1393 53.6581 39.7479 53.7067C37.7426 54.9904 37.517 57.4516 40.1195 58.111C41.0225 58.3398 43.4743 58.1279 44.4084 57.9595Z" fill="var(--fill-0, #FEFEFE)"/>
<path id="Vector_3" d="M52.8333 143.801C52.9054 143.795 52.9776 143.792 53.0498 143.788C62.3419 143.373 78.1634 144.239 86.8596 147.327C87.9902 147.729 89.3729 148.152 90.2657 148.985C90.6663 149.357 91.0158 149.893 91.0174 150.458C91.019 150.97 90.7422 151.4 90.393 151.753C86.4457 155.736 66.3336 156.937 60.448 156.937C55.9968 156.979 51.5209 157.031 47.0745 156.803C41.6815 156.527 26.9513 155.112 22.9988 151.967C22.5135 151.582 21.9873 151 21.9469 150.346C21.9196 149.903 22.1038 149.542 22.3957 149.224C23.2334 148.312 24.7502 147.86 25.8897 147.463C34.1066 144.599 44.1382 144.06 52.8333 143.801Z" fill="var(--fill-0, #FEFEFE)"/>
<path id="Vector_4" d="M44.8887 66.1566C45.9587 65.3178 65.7127 65.8887 68.0952 65.7965C68.3443 65.7868 68.709 65.8289 68.9487 65.9353C68.2244 66.1311 65.0593 66.0185 64.0723 66.0167L52.5751 66.0061C50.9773 66.0152 49.3797 66.0389 47.7824 66.0772C47.1244 66.0969 45.475 66.2046 44.8887 66.1566Z" fill="var(--fill-0, #FEFEFE)" fill-opacity="0.964706"/>
<path id="Vector_5" d="M21.3991 104.88C21.3639 103.928 21.5349 102.148 21.5434 101.007L21.6656 85.1722C21.6745 84.417 21.613 80.8698 21.7762 80.392C21.8339 82.9783 21.9428 104.284 21.511 104.856L21.3991 104.88Z" fill="var(--fill-0, #FEFEFE)" fill-opacity="0.976471"/>
</g>
</svg>
