<svg preserveAspectRatio="none" width="100%" height="100%" overflow="visible" style="display: block;" viewBox="0 0 85 66" fill="none" xmlns="http://www.w3.org/2000/svg">
<g id="Group 7157">
<path id="Vector" d="M14.378 31.3084C15.1868 31.1908 15.9858 31.5771 16.3959 32.2841L22.8299 43.3765C23.2441 44.0905 23.177 44.9856 22.6611 45.63L15.4739 54.6066C14.5956 55.7035 12.8897 55.5765 12.1835 54.3616L1.48693 35.9583C0.775244 34.7339 1.52665 33.178 2.92814 32.9741L14.378 31.3084ZM60.5 54.2493C59.3954 54.2493 58.5 53.3539 58.5 52.2493V45.0518C58.5 44.2589 58.9786 43.5563 59.6564 43.145C62.4628 41.4416 64.35 38.3991 64.35 34.8727C64.35 33.5169 64.0562 32.2195 63.5316 31.0612C63.0211 29.9338 63.2591 28.4935 64.3296 27.8725L69.966 24.6031C73.905 22.3166 75.27 17.3175 72.969 13.4034L67.587 4.10258C66.4897 2.22308 64.6892 0.850704 62.578 0.284506C60.4668 -0.281693 58.216 0.00417834 56.316 1.07982L24.609 19.3714C20.904 21.4253 19.617 26.1532 21.762 29.8735L27.612 39.9494C29.757 43.6309 34.554 44.9098 38.259 42.7784L43.6407 39.7063C44.6794 39.1134 45.9938 39.5751 46.7009 40.5397C47.4637 41.5801 48.4289 42.4687 49.5407 43.1444C50.2195 43.5569 50.7 44.2604 50.7 45.0548V54.2493C50.7 58.5122 54.21 62 58.5 62H76C77.1046 62 78 61.1046 78 60V56.2493C78 55.1448 77.1046 54.2493 76 54.2493H60.5Z" fill="url(#paint0_radial_0_10)"/>
<g id="Frame 8">
<rect x="58" y="39" width="27" height="27" rx="13.5" fill="var(--fill-0, #DACF00)"/>
<path id="Vector_2" d="M79 52.515C74.9769 52.7575 71.7562 55.9769 71.5144 60H71.485C71.2425 55.9769 68.0225 52.7575 64 52.515V52.4856C68.0231 52.2425 71.2425 49.0231 71.485 45H71.5144C71.7569 49.0231 74.9769 52.2425 79 52.4856V52.515Z" fill="var(--fill-0, white)"/>
</g>
</g>
<defs>
<radialGradient id="paint0_radial_0_10" cx="0" cy="0" r="1" gradientTransform="matrix(64.0714 55.8 -71.3966 98.7778 7.8 6.2)" gradientUnits="userSpaceOnUse">
<stop stop-color="#C6C6C6"/>
<stop offset="1" stop-color="#767676"/>
</radialGradient>
</defs>
</svg>
