<svg preserveAspectRatio="none" width="100%" height="100%" overflow="visible" style="display: block;" viewBox="0 0 20 20" fill="none" xmlns="http://www.w3.org/2000/svg">
<g id="uim:lock">
<path id="Vector" opacity="0.5" d="M14 9H6C5.73478 9 5.48043 8.89464 5.29289 8.70711C5.10536 8.51957 5 8.26522 5 8V5C5 3.67392 5.52678 2.40215 6.46447 1.46447C7.40215 0.526784 8.67392 0 10 0C11.3261 0 12.5979 0.526784 13.5355 1.46447C14.4732 2.40215 15 3.67392 15 5V8C15 8.26522 14.8946 8.51957 14.7071 8.70711C14.5196 8.89464 14.2652 9 14 9ZM7 7H13V5C13 4.20435 12.6839 3.44129 12.1213 2.87868C11.5587 2.31607 10.7956 2 10 2C9.20435 2 8.44129 2.31607 7.87868 2.87868C7.31607 3.44129 7 4.20435 7 5V7Z" fill="var(--fill-0, white)"/>
<path id="Vector_2" d="M15 7H5C3.34315 7 2 8.34315 2 10V17C2 18.6569 3.34315 20 5 20H15C16.6569 20 18 18.6569 18 17V10C18 8.34315 16.6569 7 15 7Z" fill="var(--fill-0, white)"/>
</g>
</svg>
