<svg preserveAspectRatio="none" width="100%" height="100%" overflow="visible" style="display: block;" viewBox="0 0 77 62" fill="none" xmlns="http://www.w3.org/2000/svg">
<g id="Frame 10">
<path id="Vector" d="M34.1 53.2927C34.1 54.4935 35.1536 55.4305 36.3287 55.1835C40.9697 54.2076 45.0318 51.9982 48.515 48.515C51.9982 45.0318 54.2076 40.9697 55.1835 36.3287C55.4305 35.1536 54.4935 34.1 53.2927 34.1H47.8598C46.9208 34.1 46.1211 34.7581 45.8352 35.6525C45.0587 38.081 43.7716 40.1764 41.974 41.974C40.1764 43.7716 38.081 45.0587 35.6525 45.8352C34.7581 46.1211 34.1 46.9208 34.1 47.8598V53.2927ZM24.2142 19.1858C24.5893 18.8107 25.098 18.6 25.6284 18.6H36.3716C36.902 18.6 37.4107 18.8107 37.7858 19.1858L45.9142 27.3142C46.2893 27.6893 46.798 27.9 47.3284 27.9H53.2792C54.4847 27.9 55.423 26.8387 55.1669 25.6607C54.0595 20.5672 51.4565 16.14 47.337 12.4C42.656 8.246 37.2 6.2 31 6.2C24.8 6.2 19.344 8.246 14.663 12.4C10.5435 16.14 7.94048 20.5672 6.83309 25.6607C6.57698 26.8387 7.51525 27.9 8.72078 27.9H14.6716C15.202 27.9 15.7107 27.6893 16.0858 27.3142L24.2142 19.1858ZM25.6406 55.1404C26.8244 55.4094 27.9 54.469 27.9 53.255V47.8598C27.9 46.9208 27.2419 46.1211 26.3475 45.8352C23.919 45.0587 21.8236 43.7716 20.026 41.974C18.2284 40.1764 16.9413 38.081 16.1648 35.6525C15.8789 34.7581 15.0792 34.1 14.1402 34.1H8.71198C7.50954 34.1 6.57188 35.1564 6.82497 36.3319C7.80506 40.8841 10.0118 44.8868 13.485 48.36C16.9605 51.8355 21.0123 54.089 25.6406 55.1404ZM31 0C39.525 0 46.81 3.1 52.855 9.145C58.9 15.19 62 22.475 62 31C62 39.525 58.9 46.81 52.855 52.855C46.81 58.9 39.525 62 31 62C22.475 62 15.19 58.9 9.145 52.855C3.1 46.81 0 39.525 0 31C0 22.475 3.1 15.19 9.145 9.145C15.19 3.1 22.475 0 31 0Z" fill="url(#paint0_radial_0_4)"/>
<path id="Vector_2" d="M55.3988 62H56.5982V46.9474H55.3988C54.0795 46.9474 53 47.9895 53 49.2632V59.6842C53 60.9579 54.0795 62 55.3988 62ZM74.5892 46.9474H66.6612L68.0045 43.0453C68.2444 42.3389 68.1244 41.5632 67.6807 40.9611C67.2249 40.3589 66.5052 40 65.7376 40H65.006C64.6462 40 64.3103 40.1505 64.0825 40.4168L59.009 46.2989V62H71.3748C71.8629 61.9992 72.3391 61.8546 72.7399 61.5857C73.1406 61.3167 73.4469 60.9361 73.6177 60.4947L76.928 51.9842C76.976 51.8568 77 51.7179 77 51.5789V49.2632C77 47.9895 75.9205 46.9474 74.6012 46.9474H74.5892Z" fill="var(--fill-0, #DACF00)"/>
</g>
<defs>
<radialGradient id="paint0_radial_0_4" cx="0" cy="0" r="1" gradientTransform="matrix(50.9286 55.8 -56.7512 98.7778 6.2 6.2)" gradientUnits="userSpaceOnUse">
<stop stop-color="#C6C6C6"/>
<stop offset="1" stop-color="#767676"/>
</radialGradient>
</defs>
</svg>
