<svg preserveAspectRatio="none" width="100%" height="100%" overflow="visible" style="display: block;" viewBox="0 0 19.2 19.2" fill="none" xmlns="http://www.w3.org/2000/svg">
<g id="outerlink.svg">
<path id="Vector" fill-rule="evenodd" clip-rule="evenodd" d="M16.0484 4.00028L7.9998 12.0489L7.15127 11.2003L15.1998 3.15176L16.0484 4.00028Z" fill="var(--fill-0, #666666)"/>
<path id="Vector_2" fill-rule="evenodd" clip-rule="evenodd" d="M2.6 4.79981C2.6 3.58478 3.58497 2.5998 4.8 2.5998H7.8V3.7998H4.8C4.24771 3.7998 3.8 4.24752 3.8 4.79981V14.3998C3.8 14.952 4.24771 15.3998 4.8 15.3998H14.4C14.9522 15.3998 15.4 14.952 15.4 14.3998V11.3998H16.6V14.3998C16.6 15.6148 15.615 16.5998 14.4 16.5998H4.8C3.58497 16.5998 2.6 15.6148 2.6 14.3998V4.79981Z" fill="var(--fill-0, #666666)"/>
<path id="Vector_3" fill-rule="evenodd" clip-rule="evenodd" d="M15.4 3.7998H10.4V2.5998H16.6V8.79981H15.4V3.7998Z" fill="var(--fill-0, #666666)"/>
</g>
</svg>
