<svg preserveAspectRatio="none" width="100%" height="100%" overflow="visible" style="display: block;" viewBox="0 0 19.2 19.2" fill="none" xmlns="http://www.w3.org/2000/svg">
<g id="Img">
<path id="Vector" d="M18.3218 5.20247C18.1125 4.41414 17.4956 3.79327 16.7124 3.58257C15.2927 3.19971 9.59999 3.19971 9.59999 3.19971C9.59999 3.19971 3.90732 3.19971 2.48762 3.58257C1.70439 3.79331 1.08752 4.41414 0.878154 5.20247C0.497754 6.63137 0.497754 9.61264 0.497754 9.61264C0.497754 9.61264 0.497754 12.5939 0.878154 14.0228C1.08752 14.8111 1.70439 15.4061 2.48762 15.6168C3.90732 15.9997 9.59999 15.9997 9.59999 15.9997C9.59999 15.9997 15.2927 15.9997 16.7124 15.6168C17.4956 15.4061 18.1125 14.8111 18.3218 14.0228C18.7022 12.5939 18.7022 9.61264 18.7022 9.61264C18.7022 9.61264 18.7022 6.63137 18.3218 5.20247ZM7.73815 12.3194V6.90587L12.4961 9.61271L7.73815 12.3194Z" fill="var(--fill-0, white)"/>
</g>
</svg>
