<svg preserveAspectRatio="none" width="100%" height="100%" overflow="visible" style="display: block;" viewBox="0 0 19.2 19.2" fill="none" xmlns="http://www.w3.org/2000/svg">
<g id="Img">
<path id="Vector" d="M4.9604 16.8001H1.4774V5.58386H4.9604V16.8001ZM3.21703 4.05386C2.10328 4.05386 1.1999 3.13136 1.1999 2.01761C1.1999 1.48264 1.41242 0.969575 1.7907 0.591291C2.16899 0.213006 2.68205 0.000488281 3.21703 0.000488281C3.752 0.000488281 4.26507 0.213006 4.64335 0.591291C5.02163 0.969575 5.23415 1.48264 5.23415 2.01761C5.23415 3.13136 4.3304 4.05386 3.21703 4.05386ZM17.9962 16.8001H14.5207V11.3401C14.5207 10.0389 14.4944 8.37011 12.7098 8.37011C10.8989 8.37011 10.6214 9.78386 10.6214 11.2464V16.8001H7.14215V5.58386H10.4827V7.11386H10.5314C10.9964 6.23261 12.1323 5.30261 13.8269 5.30261C17.3519 5.30261 17.9999 7.62386 17.9999 10.6389V16.8001H17.9962Z" fill="var(--fill-0, white)"/>
</g>
</svg>
