<svg width="1728" height="2160" viewBox="0 0 1728 2160" fill="none" xmlns="http://www.w3.org/2000/svg">
<g clip-path="url(#clip0_8_438)">
<mask id="mask0_8_438" style="mask-type:luminance" maskUnits="userSpaceOnUse" x="0" y="0" width="1728" height="2160">
<path d="M1728 0H0V2160H1728V0Z" fill="white"/>
</mask>
<g mask="url(#mask0_8_438)">
<mask id="mask1_8_438" style="mask-type:luminance" maskUnits="userSpaceOnUse" x="0" y="56" width="1729" height="2161">
<path d="M3.05176e-05 56.16H1728V2216.16H3.05176e-05V56.16Z" fill="white"/>
</mask>
<g mask="url(#mask1_8_438)">
<mask id="mask2_8_438" style="mask-type:luminance" maskUnits="userSpaceOnUse" x="-337" y="-206" width="2126" height="2658">
<path d="M-336.96 -205.2H1788.48V2451.6H-336.96V-205.2Z" fill="white"/>
</mask>
<g mask="url(#mask2_8_438)">
<path d="M-394.745 1016.93H223.625C537.643 1016.93 844.662 924.154 1106.13 750.256L1838.96 263.725" stroke="#D9D9D9" stroke-width="21.2544"/>
<path d="M1848.93 1986.33L1523.8 1660.87L1218.27 1355.34L1094.42 1231.5C1041.71 1178.79 1021.52 1107.57 1031.52 1040.63C1040.5 980.494 1073.84 923.803 1129.84 887.074L1447.71 678.903L1866.25 404.812" stroke="#D9D9D9" stroke-width="21.2544"/>
<path d="M-554.666 1922.9L1863.53 328.368" stroke="url(#paint0_linear_8_438)" stroke-width="21.2544"/>
<mask id="mask3_8_438" style="mask-type:luminance" maskUnits="userSpaceOnUse" x="1516" y="522" width="133" height="133">
<path d="M1516.05 522.159H1648.89V654.999H1516.05V522.159Z" fill="white"/>
</mask>
<g mask="url(#mask3_8_438)">
<path d="M1611.42 569.734C1626.9 580.134 1627.3 596.669 1612.3 606.666C1597.31 616.663 1572.6 616.336 1557.11 605.936C1541.63 595.536 1541.23 579.001 1556.23 569.004C1571.22 559.007 1595.93 559.334 1611.42 569.734Z" fill="#7B7B7B"/>
<path d="M1612.37 606.707C1597.53 616.595 1572.83 616.395 1557.19 605.888C1541.54 595.38 1541.34 578.849 1556.16 568.962C1571 559.075 1595.7 559.274 1611.34 569.782C1626.99 580.289 1627.19 596.819 1612.37 606.707Z" stroke="white" stroke-width="9.2988"/>
</g>
<mask id="mask4_8_438" style="mask-type:luminance" maskUnits="userSpaceOnUse" x="44" y="1194" width="400" height="399">
<path d="M44.9403 1194.38H443.46V1592.9H44.9403V1194.38Z" fill="white"/>
</mask>
<g mask="url(#mask4_8_438)">
<g opacity="0.998902">
<path d="M297.558 1429.9C269.839 1448.38 223.711 1447.5 194.522 1427.9C165.333 1408.29 164.192 1377.42 191.911 1358.94C219.622 1340.47 265.758 1341.34 294.947 1360.95C324.136 1380.55 325.269 1411.43 297.558 1429.9Z" stroke="#DACF00" stroke-width="0.821067"/>
</g>
<path d="M270.921 1375.52C286.404 1385.92 286.8 1402.45 271.807 1412.45C256.814 1422.45 232.109 1422.12 216.627 1411.72C201.144 1401.32 200.749 1384.79 215.741 1374.79C230.734 1364.8 255.439 1365.13 270.921 1375.52Z" fill="#DACF00"/>
<path d="M271.876 1412.49C257.038 1422.38 232.343 1422.18 216.695 1411.68C201.059 1401.17 200.847 1384.64 215.685 1374.75C230.51 1364.86 255.218 1365.06 270.853 1375.57C286.502 1386.08 286.701 1402.61 271.876 1412.49Z" stroke="white" stroke-width="9.2988"/>
</g>
</g>
<mask id="mask5_8_438" style="mask-type:luminance" maskUnits="userSpaceOnUse" x="1352" y="453" width="286" height="286">
<path d="M1352.7 453.6H1637.82V738.72H1352.7V453.6Z" fill="white"/>
</mask>
<g mask="url(#mask5_8_438)">
<path d="M1556.86 625.249V564.666L1560.88 567.345V627.928L1556.86 625.249Z" fill="#4D4D4D"/>
<path d="M1541.7 543.585C1541.7 532.19 1549.39 528.077 1558.86 534.398C1568.35 540.719 1576.03 555.08 1576.03 566.476C1576.03 577.871 1568.35 581.985 1558.86 575.663C1549.39 569.343 1541.7 554.981 1541.7 543.585Z" fill="#333333"/>
<path d="M1560.94 545.65C1562.01 546.362 1562.96 547.256 1563.77 548.331C1564.58 549.405 1565.21 550.581 1565.65 551.858C1566.11 553.126 1566.33 554.393 1566.33 555.663C1566.33 556.912 1566.11 557.866 1565.65 558.522C1565.19 559.18 1564.54 559.492 1563.69 559.459C1562.86 559.417 1561.89 559.029 1560.79 558.294L1556.72 555.582C1556.63 555.525 1556.6 555.549 1556.6 555.651V563.912C1556.6 564.015 1556.56 564.085 1556.5 564.121C1556.45 564.149 1556.37 564.133 1556.28 564.078L1553.96 562.517C1553.87 562.461 1553.79 562.38 1553.72 562.273C1553.67 562.158 1553.64 562.048 1553.64 561.946V541.152C1553.64 541.05 1553.67 540.986 1553.72 540.958C1553.79 540.922 1553.87 540.931 1553.96 540.988L1560.94 545.65ZM1560.51 555.221C1561.38 555.797 1562.07 555.953 1562.6 555.689C1563.12 555.425 1563.38 554.792 1563.38 553.789C1563.38 552.765 1563.12 551.761 1562.6 550.776C1562.07 549.79 1561.38 549.009 1560.51 548.432L1556.72 545.908C1556.63 545.85 1556.6 545.874 1556.6 545.976V552.457C1556.6 552.559 1556.63 552.639 1556.72 552.694L1560.51 555.221Z" fill="white"/>
<path d="M1568.3 631.238L1549.12 618.458V688.858L1568.3 701.637V631.238Z" fill="#CCCCCC"/>
<path d="M1547.68 617.489C1545.74 616.201 1544.17 617.04 1544.17 619.362V685.555L1549.12 688.857V618.458L1547.67 617.487L1547.68 617.489Z" fill="#DBDBDB"/>
<path d="M1547.68 617.489C1545.74 616.201 1544.17 617.04 1544.17 619.362V685.555L1549.12 688.857V618.458L1547.67 617.487L1547.68 617.489Z" fill="#E6E6E6"/>
<path d="M1569.76 632.21L1568.3 631.238V701.636L1573.26 704.941V638.749C1573.26 636.426 1571.69 633.498 1569.76 632.21Z" fill="#B3B3B3"/>
<path d="M1573.26 670.243L1544.17 650.856V649.855L1573.26 669.242V670.243Z" fill="#727272"/>
<path d="M1565.35 684.67L1552.09 675.829V673.823L1565.35 682.664V684.67Z" fill="#727272"/>
<path d="M1565.35 688.379L1552.09 679.538V677.532L1565.35 686.374V688.379Z" fill="#727272"/>
<path d="M1565.35 692.09L1552.09 683.247V681.241L1565.35 690.083V692.09Z" fill="#727272"/>
<path d="M1410.11 518.875L1405.64 521.307L1419.62 532.505L1424.09 530.072L1410.11 518.875Z" fill="white"/>
<path d="M1546.46 634.101L1558.85 644.028L1561.21 639.894L1550.94 631.665L1546.46 634.101Z" fill="white"/>
<path d="M1510.71 599.442L1506.23 601.877L1520.21 613.074L1524.69 610.638L1510.71 599.442Z" fill="white"/>
<path d="M1530.83 615.552L1526.34 617.988L1540.33 629.187L1544.81 626.751L1530.83 615.552Z" fill="white"/>
<path d="M1430.23 534.986L1425.75 537.42L1439.73 548.617L1444.21 546.184L1430.23 534.986Z" fill="white"/>
<path d="M1490.59 583.327L1486.11 585.762L1500.09 596.959L1504.57 594.524L1490.59 583.327Z" fill="white"/>
<path d="M1450.35 551.099L1445.87 553.532L1459.85 564.732L1464.33 562.299L1450.35 551.099Z" fill="white"/>
<path d="M1470.47 567.214L1465.99 569.648L1479.97 580.846L1484.45 578.412L1470.47 567.214Z" fill="white"/>
<path d="M1424.09 530.072L1419.62 532.505L1425.75 537.42L1430.23 534.986L1424.09 530.072Z" fill="#333333"/>
<path d="M1404.49 514.375L1403.45 519.552L1405.64 521.307L1410.11 518.875L1404.49 514.375Z" fill="#333333"/>
<path d="M1444.21 546.185L1439.73 548.617L1445.87 553.532L1450.35 551.099L1444.21 546.185Z" fill="#333333"/>
<path d="M1464.33 562.299L1459.85 564.732L1465.99 569.647L1470.47 567.213L1464.33 562.299Z" fill="#333333"/>
<path d="M1484.45 578.412L1479.97 580.846L1486.11 585.762L1490.59 583.327L1484.45 578.412Z" fill="#333333"/>
<path d="M1504.57 594.524L1500.09 596.96L1506.23 601.877L1510.71 599.441L1504.57 594.524Z" fill="#333333"/>
<path d="M1524.69 610.639L1520.21 613.075L1526.34 617.989L1530.83 615.553L1524.69 610.639Z" fill="#333333"/>
<path d="M1544.81 626.751L1540.33 629.187L1546.46 634.101L1550.94 631.666L1544.81 626.751Z" fill="#333333"/>
<path d="M1558.71 646.745C1561.39 648.529 1563.56 647.369 1563.56 644.154C1563.56 640.939 1561.39 636.886 1558.71 635.103C1556.04 633.32 1553.87 634.481 1553.87 637.696C1553.87 640.91 1556.04 644.962 1558.71 646.745Z" fill="#333333"/>
</g>
<path d="M1712.53 261.572H1623.74V251.555H1712.53V261.572Z" fill="#CED5D9"/>
<path d="M1728 301.139H1717.4C1712.65 301.139 1708.8 297.289 1708.8 292.539V220.588C1708.8 215.838 1712.65 211.988 1717.4 211.988H1728V301.139Z" fill="#5F5F5F"/>
<path d="M1138.54 661.957L1495.29 816.03C1495.29 816.03 1555.2 314.953 1555.02 314.746C1554.83 314.539 1546.73 310.253 1546.73 310.253L1138.54 661.957Z" fill="url(#paint1_radial_8_438)"/>
<path d="M1579.51 246.809L1595.12 219.092L1628.58 237.928C1636.22 242.238 1638.96 251.934 1634.64 259.619C1630.34 267.258 1620.63 270.009 1612.95 265.684L1579.49 246.847L1579.51 246.809Z" fill="#5F5F5F"/>
<path d="M1624.82 254.76C1626.48 252.535 1626.02 249.38 1623.79 247.723C1621.56 246.065 1618.41 246.531 1616.75 248.756C1615.09 250.99 1615.55 254.145 1617.78 255.803C1620.01 257.46 1623.16 256.994 1624.82 254.76Z" fill="white"/>
<path d="M1628.72 199.386L1607.79 187.599C1604.53 185.764 1600.4 186.917 1598.56 190.183L1542.48 289.781C1540.64 293.039 1541.8 297.175 1545.06 299.002L1565.99 310.788C1569.25 312.624 1573.38 311.471 1575.22 308.204L1631.3 208.616C1633.14 205.349 1631.98 201.222 1628.72 199.386Z" fill="#CED5D9"/>
<path d="M1622.57 200.153L1579.19 277.169C1576.04 282.756 1570.16 286.241 1563.74 286.313L1524.84 286.741L1585.4 179.216C1591.18 168.951 1604.19 165.318 1614.46 171.099C1624.72 176.881 1628.35 189.889 1622.57 200.153Z" fill="#5F5F5F"/>
<path d="M1558.28 311.638L1548.4 306.067C1547.78 305.717 1546.99 305.94 1546.64 306.558L1544.81 309.816C1544.45 310.445 1544.68 311.227 1545.3 311.578L1555.19 317.139C1555.81 317.491 1556.59 317.267 1556.94 316.648L1558.78 313.389C1559.12 312.771 1558.9 311.988 1558.28 311.638Z" fill="#CED5D9"/>
<path d="M1564.32 306.363L1549.69 298.126C1548.77 297.606 1547.61 297.932 1547.09 298.851L1544.37 303.675C1543.86 304.594 1544.18 305.756 1545.1 306.276L1559.74 314.514C1560.65 315.033 1561.82 314.706 1562.34 313.788L1565.05 308.964C1565.57 308.046 1565.24 306.883 1564.32 306.363Z" fill="#5F5F5F"/>
<path d="M1599.13 211.653L1589.42 228.9C1588.68 230.215 1589.14 231.892 1590.46 232.639L1590.5 232.654C1591.82 233.401 1593.49 232.932 1594.24 231.608L1603.95 214.361C1604.69 213.045 1604.22 211.369 1602.9 210.631L1602.87 210.606C1601.54 209.868 1599.88 210.329 1599.13 211.653Z" fill="#CED5D9"/>
</g>
</g>
</g>
<defs>
<linearGradient id="paint0_linear_8_438" x1="423" y1="1281" x2="1111.2" y2="832.2" gradientUnits="userSpaceOnUse">
<stop stop-color="#FFFDD7"/>
<stop offset="0.466346" stop-color="#FEF9A1"/>
<stop offset="1" stop-color="#DACF00"/>
</linearGradient>
<radialGradient id="paint1_radial_8_438" cx="0" cy="0" r="1" gradientUnits="userSpaceOnUse" gradientTransform="translate(1535.17 338.395) rotate(-53.3508) scale(343.921 343.921)">
<stop stop-color="#6E6E6E" stop-opacity="0.2"/>
<stop offset="0.5" stop-color="#373737" stop-opacity="0.1"/>
<stop offset="1" stop-opacity="0"/>
</radialGradient>
<clipPath id="clip0_8_438">
<rect width="1728" height="2160" fill="white"/>
</clipPath>
</defs>
</svg>
