<svg preserveAspectRatio="none" width="100%" height="100%" overflow="visible" style="display: block;" viewBox="0 0 24 24" fill="none" xmlns="http://www.w3.org/2000/svg">
<g id="material-symbols-light:car-tag-outline">
<path id="Vector" d="M6.423 15.692C6.737 15.692 7.00133 15.5847 7.216 15.37C7.43067 15.1553 7.53833 14.891 7.539 14.577C7.53967 14.263 7.432 13.9987 7.216 13.784C7 13.5693 6.73567 13.462 6.423 13.462C6.11033 13.462 5.846 13.5693 5.63 13.784C5.414 13.9987 5.30667 14.263 5.308 14.577C5.30933 14.891 5.41667 15.1553 5.63 15.37C5.84333 15.5847 6.10767 15.692 6.423 15.692ZM15.577 15.692C15.8717 15.692 16.1237 15.5953 16.333 15.402C16.5417 15.2087 16.6557 14.9663 16.675 14.675C16.393 14.595 16.1243 14.4827 15.869 14.338C15.6137 14.1933 15.3677 14.0083 15.131 13.783L14.987 13.639C14.833 13.7337 14.707 13.865 14.609 14.033C14.511 14.201 14.462 14.3823 14.462 14.577C14.462 14.891 14.5693 15.1553 14.784 15.37C14.9987 15.5847 15.263 15.692 15.577 15.692ZM4.23 18V19.5C4.23 19.6427 4.18267 19.7617 4.088 19.857C3.99333 19.9523 3.874 20 3.73 20H3.5C3.358 20 3.239 19.9523 3.143 19.857C3.047 19.7617 2.99933 19.6427 3 19.5V12.154L4.985 6.5C5.03367 6.34133 5.12633 6.218 5.263 6.13C5.39967 6.042 5.55533 5.99867 5.73 6H9.115V6.317C9.115 6.43033 9.119 6.54433 9.127 6.659C9.135 6.77367 9.154 6.88733 9.184 7H5.89L4.417 11.154H12.484L13.484 12.154H4V17H18V14.802C18.1747 14.782 18.3463 14.745 18.515 14.691C18.683 14.6363 18.8447 14.5657 19 14.479V19.5C19 19.6427 18.9523 19.7617 18.857 19.857C18.7617 19.9523 18.6427 20 18.5 20H18.27C18.1273 20 18.008 19.9523 17.912 19.857C17.816 19.7617 17.7683 19.6427 17.769 19.5V18H4.23ZM15.52 5.52C15.66 5.38 15.73 5.20667 15.73 5C15.73 4.79333 15.66 4.62 15.52 4.48C15.38 4.34 15.2067 4.27 15 4.27C14.7933 4.27 14.62 4.34 14.48 4.48C14.34 4.62 14.27 4.79333 14.27 5C14.27 5.20667 14.34 5.38 14.48 5.52C14.62 5.66 14.7933 5.73 15 5.73C15.2067 5.73 15.38 5.66 15.52 5.52ZM16.762 12.05L11.854 7.142C11.746 7.03467 11.66 6.90767 11.596 6.761C11.532 6.61433 11.5 6.46 11.5 6.298V2.712C11.5 2.35867 11.617 2.06867 11.851 1.842C12.085 1.614 12.3717 1.5 12.711 1.5H16.298C16.46 1.5 16.6143 1.532 16.761 1.596C16.9077 1.66 17.0347 1.746 17.142 1.854L22.05 6.762C22.2947 7.00667 22.417 7.29333 22.417 7.622C22.417 7.95133 22.2947 8.238 22.05 8.482L18.483 12.05C18.2377 12.2947 17.9507 12.417 17.622 12.417C17.2933 12.417 17.0067 12.2947 16.762 12.05ZM17.182 11.07C17.298 11.1847 17.4427 11.242 17.616 11.242C17.7887 11.242 17.9327 11.1843 18.048 11.069L21.069 8.048C21.1843 7.93267 21.242 7.78833 21.242 7.615C21.242 7.44167 21.1843 7.29767 21.069 7.183L16.559 2.673C16.495 2.609 16.4247 2.56433 16.348 2.539C16.2713 2.51367 16.1947 2.50067 16.118 2.5H12.808C12.718 2.5 12.644 2.529 12.586 2.587C12.528 2.645 12.4993 2.71833 12.5 2.807V6.117C12.5 6.19433 12.513 6.27133 12.539 6.348C12.5643 6.42533 12.609 6.496 12.673 6.56L17.182 11.07Z" fill="var(--fill-0, black)"/>
</g>
</svg>
