<svg preserveAspectRatio="none" width="100%" height="100%" overflow="visible" style="display: block;" viewBox="0 0 21.5024 15.5" fill="none" xmlns="http://www.w3.org/2000/svg">
<g id="Group">
<path id="Vector" d="M7.75781 12.75C7.75781 13.2804 7.54709 13.7891 7.17202 14.1642C6.79695 14.5393 6.28824 14.75 5.75781 14.75C5.22737 14.75 4.71867 14.5393 4.34359 14.1642C3.96852 13.7891 3.75781 13.2804 3.75781 12.75C3.75781 12.2196 3.96852 11.7109 4.34359 11.3358C4.71867 10.9607 5.22737 10.75 5.75781 10.75C6.28824 10.75 6.79695 10.9607 7.17202 11.3358C7.54709 11.7109 7.75781 12.2196 7.75781 12.75ZM17.7578 12.75C17.7578 13.2804 17.5471 13.7891 17.172 14.1642C16.7969 14.5393 16.2882 14.75 15.7578 14.75C15.2274 14.75 14.7187 14.5393 14.3436 14.1642C13.9685 13.7891 13.7578 13.2804 13.7578 12.75C13.7578 12.2196 13.9685 11.7109 14.3436 11.3358C14.7187 10.9607 15.2274 10.75 15.7578 10.75C16.2882 10.75 16.7969 10.9607 17.172 11.3358C17.5471 11.7109 17.7578 12.2196 17.7578 12.75Z" stroke="var(--stroke-0, black)" stroke-width="1.5"/>
<path id="Vector_2" d="M0.757806 5.75H16.7578M0.757806 5.75C0.757806 6.53 0.737806 8.79 0.761806 11.01C0.797806 11.73 0.917806 12.33 3.75981 12.75M0.757806 5.75C0.973806 4.01 1.91281 1.95 2.39281 1.17M7.75781 5.75V0.75M13.7478 12.75H7.75281M0.773806 0.75H10.9908C10.9908 0.75 11.5308 0.75 12.0108 0.798C12.9098 0.882 13.6648 1.29 14.4208 2.31C15.2208 3.39 15.8358 4.758 16.6508 5.49C18.0058 6.706 20.5838 6.33 20.7278 8.91C20.7638 10.23 20.7638 11.67 20.7038 11.91C20.6078 12.617 20.0628 12.732 19.3848 12.75C18.7968 12.766 18.0878 12.722 17.7418 12.75" stroke="var(--stroke-0, black)" stroke-width="1.5" stroke-linecap="round"/>
</g>
</svg>
