<svg preserveAspectRatio="none" width="100%" height="100%" overflow="visible" style="display: block;" viewBox="0 0 12.6879 23.198" fill="none" xmlns="http://www.w3.org/2000/svg">
<g id="Group">
<path id="Vector" d="M7.29628 4.71308C8.36719 5.4253 9.3135 6.31944 10.123 7.39406C10.9321 8.46868 11.5671 9.64394 12.003 10.9216C12.4638 12.1889 12.6879 13.4563 12.6879 14.7262C12.6879 15.975 12.4638 16.9293 12.003 17.5854C11.5423 18.2429 10.8948 18.5551 10.0483 18.5226C9.214 18.4804 8.24259 18.092 7.14688 17.3576L3.07536 14.6452C2.9884 14.5879 2.95077 14.6122 2.95077 14.7142V22.9753C2.95077 23.0785 2.91341 23.1486 2.85126 23.1846C2.80136 23.2122 2.72695 23.1968 2.6397 23.1409L0.311124 21.5808C0.224162 21.5246 0.149461 21.4436 0.0747594 21.3367C0.0248636 21.221 5.81741e-05 21.1112 5.81741e-05 21.0091V0.215593C5.81741e-05 0.113519 0.0248636 0.0490827 0.0747594 0.021711C0.149461 -0.0144989 0.224162 -0.0059457 0.311124 0.0513635L7.29628 4.71308ZM6.86062 14.2843C7.73223 14.8608 8.42935 15.0167 8.95254 14.7527C9.47545 14.4887 9.73691 13.8549 9.73691 12.8527C9.73691 11.828 9.47545 10.8241 8.95254 9.83925C8.42935 8.85302 7.73223 8.07236 6.86062 7.49585L3.07536 4.97111C2.9884 4.9138 2.95077 4.93746 2.95077 5.03954V11.52C2.95077 11.6221 2.9884 11.7019 3.07536 11.7578L6.86062 14.2843Z" fill="var(--fill-0, white)"/>
</g>
</svg>
